<?xml version="1.0" encoding="UTF-8"?><svg xmlns="http://www.w3.org/2000/svg" xmlns:xlink="http://www.w3.org/1999/xlink" fill-opacity="1" color-rendering="auto" color-interpolation="auto" text-rendering="auto" stroke="black" stroke-linecap="square" width="1517" stroke-miterlimit="10" shape-rendering="auto" stroke-opacity="1" fill="black" stroke-dasharray="none" font-weight="normal" stroke-width="1" height="617" font-family="'Dialog'" font-style="normal" stroke-linejoin="miter" font-size="12px" stroke-dashoffset="0" image-rendering="auto">
  <!--Generated by ySVG 2.5-->
  <defs id="genericDefs"/>
  <g>
    <defs id="defs1">
      <clipPath clipPathUnits="userSpaceOnUse" id="clipPath1">
        <path d="M0 0 L1517 0 L1517 617 L0 617 L0 0 Z"/>
      </clipPath>
      <clipPath clipPathUnits="userSpaceOnUse" id="clipPath2">
        <path d="M62 120 L1579 120 L1579 737 L62 737 L62 120 Z"/>
      </clipPath>
    </defs>
    <g fill="white" text-rendering="geometricPrecision" shape-rendering="geometricPrecision" transform="translate(-62,-120)" stroke="white">
      <rect x="62" width="1517" height="617" y="120" clip-path="url(#clipPath2)" stroke="none"/>
    </g>
    <g id="y.node.0">
      <a target="_blank" xlink:type="simple" xlink:href="https://github.com/salmer/CppDeveloperRoadmap" xlink:show="new">
        <g fill="white" text-rendering="geometricPrecision" shape-rendering="geometricPrecision" transform="matrix(1,0,0,1,-62,-120)" stroke="white">
          <rect x="739" y="457" width="180" rx="4" ry="4" height="30" stroke="none"/>
        </g>
        <g text-rendering="geometricPrecision" stroke-miterlimit="1.45" shape-rendering="geometricPrecision" transform="matrix(1,0,0,1,-62,-120)" stroke-linecap="butt">
          <rect x="739" y="457" fill="none" width="180" rx="4" ry="4" height="30"/>
        </g>
        <g>
          <g text-rendering="geometricPrecision" stroke-miterlimit="1.45" shape-rendering="geometricPrecision" font-family="sans-serif" transform="matrix(1,0,0,1,-62,-120)" stroke-linecap="butt">
            <text x="815.9951" xml:space="preserve" y="476.7139" stroke="none">main</text>
          </g>
        </g>
      </a>
    </g>
    <g id="y.node.1">
      <g fill="rgb(187,204,238)" text-rendering="geometricPrecision" shape-rendering="geometricPrecision" transform="matrix(1,0,0,1,-62,-120)" stroke="rgb(187,204,238)">
        <rect x="77" y="135" width="171" rx="4" ry="4" height="30" stroke="none"/>
      </g>
      <g text-rendering="geometricPrecision" stroke-miterlimit="1.45" shape-rendering="geometricPrecision" transform="matrix(1,0,0,1,-62,-120)" stroke-linecap="butt">
        <rect x="77" y="135" fill="none" width="171" rx="4" ry="4" height="30"/>
      </g>
      <g>
        <g text-rendering="geometricPrecision" stroke-miterlimit="1.45" shape-rendering="geometricPrecision" font-family="sans-serif" transform="matrix(1,0,0,1,-62,-120)" stroke-linecap="butt">
          <text x="159.1631" xml:space="preserve" y="154.7139" stroke="none">9</text>
        </g>
      </g>
    </g>
    <g id="y.node.2">
      <g fill="rgb(187,204,238)" text-rendering="geometricPrecision" shape-rendering="geometricPrecision" transform="matrix(1,0,0,1,-62,-120)" stroke="rgb(187,204,238)">
        <rect x="77" y="265" width="171" rx="4" ry="4" height="30" stroke="none"/>
      </g>
      <g text-rendering="geometricPrecision" stroke-miterlimit="1.45" shape-rendering="geometricPrecision" transform="matrix(1,0,0,1,-62,-120)" stroke-linecap="butt">
        <rect x="77" y="265" fill="none" width="171" rx="4" ry="4" height="30"/>
      </g>
      <g>
        <g text-rendering="geometricPrecision" stroke-miterlimit="1.45" shape-rendering="geometricPrecision" font-family="sans-serif" transform="matrix(1,0,0,1,-62,-120)" stroke-linecap="butt">
          <text x="155.8262" xml:space="preserve" y="284.7139" stroke="none">10</text>
        </g>
      </g>
    </g>
    <g id="y.node.3">
      <g fill="rgb(187,204,238)" text-rendering="geometricPrecision" shape-rendering="geometricPrecision" transform="matrix(1,0,0,1,-62,-120)" stroke="rgb(187,204,238)">
        <rect x="359" y="265" width="180" rx="4" ry="4" height="30" stroke="none"/>
      </g>
      <g text-rendering="geometricPrecision" stroke-miterlimit="1.45" shape-rendering="geometricPrecision" transform="matrix(1,0,0,1,-62,-120)" stroke-linecap="butt">
        <rect x="359" y="265" fill="none" width="180" rx="4" ry="4" height="30"/>
      </g>
      <g>
        <g text-rendering="geometricPrecision" stroke-miterlimit="1.45" shape-rendering="geometricPrecision" font-family="sans-serif" transform="matrix(1,0,0,1,-62,-120)" stroke-linecap="butt">
          <text x="445.6631" xml:space="preserve" y="284.7139" stroke="none">8</text>
        </g>
      </g>
    </g>
    <g id="y.node.4">
      <g fill="rgb(204,238,255)" text-rendering="geometricPrecision" shape-rendering="geometricPrecision" transform="matrix(1,0,0,1,-62,-120)" stroke="rgb(204,238,255)">
        <rect x="359" y="589" width="180" rx="4" ry="4" height="30" stroke="none"/>
      </g>
      <g text-rendering="geometricPrecision" stroke-miterlimit="1.45" shape-rendering="geometricPrecision" transform="matrix(1,0,0,1,-62,-120)" stroke-linecap="butt">
        <rect x="359" y="589" fill="none" width="180" rx="4" ry="4" height="30"/>
      </g>
      <g>
        <g text-rendering="geometricPrecision" stroke-miterlimit="1.45" shape-rendering="geometricPrecision" font-family="sans-serif" transform="matrix(1,0,0,1,-62,-120)" stroke-linecap="butt">
          <text x="442.3262" xml:space="preserve" y="608.7139" stroke="none">11</text>
        </g>
      </g>
    </g>
    <g id="y.node.5">
      <g fill="rgb(204,238,255)" text-rendering="geometricPrecision" shape-rendering="geometricPrecision" transform="matrix(1,0,0,1,-62,-120)" stroke="rgb(204,238,255)">
        <rect x="77" y="589" width="171" rx="4" ry="4" height="30" stroke="none"/>
      </g>
      <g text-rendering="geometricPrecision" stroke-miterlimit="1.45" shape-rendering="geometricPrecision" transform="matrix(1,0,0,1,-62,-120)" stroke-linecap="butt">
        <rect x="77" y="589" fill="none" width="171" rx="4" ry="4" height="30"/>
      </g>
      <g>
        <g text-rendering="geometricPrecision" stroke-miterlimit="1.45" shape-rendering="geometricPrecision" font-family="sans-serif" transform="matrix(1,0,0,1,-62,-120)" stroke-linecap="butt">
          <text x="155.8262" xml:space="preserve" y="608.7139" stroke="none">12</text>
        </g>
      </g>
    </g>
    <g id="y.node.6">
      <g fill="rgb(150,187,124)" text-rendering="geometricPrecision" shape-rendering="geometricPrecision" transform="matrix(1,0,0,1,-62,-120)" stroke="rgb(150,187,124)">
        <rect x="1113" y="167" width="171" rx="4" ry="4" height="30" stroke="none"/>
      </g>
      <g text-rendering="geometricPrecision" stroke-miterlimit="1.45" shape-rendering="geometricPrecision" transform="matrix(1,0,0,1,-62,-120)" stroke-linecap="butt">
        <rect x="1113" y="167" fill="none" width="171" rx="4" ry="4" height="30"/>
      </g>
      <g>
        <g text-rendering="geometricPrecision" stroke-miterlimit="1.45" shape-rendering="geometricPrecision" font-family="sans-serif" transform="matrix(1,0,0,1,-62,-120)" stroke-linecap="butt">
          <text x="1195.1631" xml:space="preserve" y="186.7139" stroke="none">1</text>
        </g>
      </g>
    </g>
    <g id="y.node.7">
      <g fill="rgb(150,187,124)" text-rendering="geometricPrecision" shape-rendering="geometricPrecision" transform="matrix(1,0,0,1,-62,-120)" stroke="rgb(150,187,124)">
        <rect x="1369" y="167" width="180" rx="4" ry="4" height="30" stroke="none"/>
      </g>
      <g text-rendering="geometricPrecision" stroke-miterlimit="1.45" shape-rendering="geometricPrecision" transform="matrix(1,0,0,1,-62,-120)" stroke-linecap="butt">
        <rect x="1369" y="167" fill="none" width="180" rx="4" ry="4" height="30"/>
      </g>
      <g>
        <g text-rendering="geometricPrecision" stroke-miterlimit="1.45" shape-rendering="geometricPrecision" font-family="sans-serif" transform="matrix(1,0,0,1,-62,-120)" stroke-linecap="butt">
          <text x="1455.6631" xml:space="preserve" y="186.7139" stroke="none">2</text>
        </g>
      </g>
    </g>
    <g id="y.edge.4">
      <g text-rendering="geometricPrecision" stroke-miterlimit="1.45" shape-rendering="geometricPrecision" transform="matrix(1,0,0,1,-62,-120)" stroke-linecap="butt">
        <path fill="none" d="M738.9945 472 L604 472 L604 280 L547.0256 280"/>
        <path d="M539.0256 280 L551.0256 285 L548.0256 280 L551.0256 275 Z" stroke="none"/>
      </g>
    </g>
    <g id="y.edge.5">
      <g text-rendering="geometricPrecision" stroke-miterlimit="1.45" shape-rendering="geometricPrecision" transform="matrix(1,0,0,1,-62,-120)" stroke-linecap="butt">
        <path fill="none" d="M359.022 280 L299 280 L299 150 L255.9791 150"/>
        <path d="M247.9791 150 L259.9791 155 L256.9791 150 L259.9791 145 Z" stroke="none"/>
      </g>
    </g>
    <g id="y.edge.6">
      <g text-rendering="geometricPrecision" stroke-miterlimit="1.45" shape-rendering="geometricPrecision" transform="matrix(1,0,0,1,-62,-120)" stroke-linecap="butt">
        <path fill="none" d="M359.0141 280 L256.0431 280"/>
        <path d="M248.0431 280 L260.0431 285 L257.0431 280 L260.0431 275 Z" stroke="none"/>
      </g>
    </g>
    <g id="y.edge.8">
      <g text-rendering="geometricPrecision" stroke-miterlimit="1.45" shape-rendering="geometricPrecision" transform="matrix(1,0,0,1,-62,-120)" stroke-linecap="butt">
        <path fill="none" d="M738.9945 472 L604 472 L604 604 L547.0256 604"/>
        <path d="M539.0256 604 L551.0256 609 L548.0256 604 L551.0256 599 Z" stroke="none"/>
      </g>
    </g>
    <g id="y.edge.7">
      <g text-rendering="geometricPrecision" stroke-miterlimit="1.45" shape-rendering="geometricPrecision" transform="matrix(1,0,0,1,-62,-120)" stroke-linecap="butt">
        <path fill="none" d="M359.0141 604 L256.0431 604"/>
        <path d="M248.0431 604 L260.0431 609 L257.0431 604 L260.0431 599 Z" stroke="none"/>
      </g>
    </g>
    <g id="y.edge.1">
      <g text-rendering="geometricPrecision" stroke-miterlimit="1.45" shape-rendering="geometricPrecision" transform="matrix(1,0,0,1,-62,-120)" stroke-linecap="butt">
        <path fill="none" d="M918.9883 472 L1053 472 L1053 182 L1104.9974 182"/>
        <path d="M1112.9974 182 L1100.9974 177 L1103.9974 182 L1100.9974 187 Z" stroke="none"/>
      </g>
    </g>
    <g id="y.edge.3">
      <g text-rendering="geometricPrecision" stroke-miterlimit="1.45" shape-rendering="geometricPrecision" transform="matrix(1,0,0,1,-62,-120)" stroke-linecap="butt">
        <path fill="none" d="M1284.0083 182 L1360.9835 182"/>
        <path d="M1368.9835 182 L1356.9835 177 L1359.9835 182 L1356.9835 187 Z" stroke="none"/>
      </g>
    </g>
    <g id="y.node.8">
      <g fill="rgb(245,245,245)" text-rendering="geometricPrecision" shape-rendering="geometricPrecision" transform="matrix(1,0,0,1,-62,-120)" stroke="rgb(245,245,245)">
        <rect x="1098" y="418.6235" width="466" rx="4" ry="4" height="303.3765" stroke="none"/>
      </g>
      <g>
        <g fill="rgb(235,235,235)" text-rendering="geometricPrecision" shape-rendering="geometricPrecision" transform="matrix(1,0,0,1,-62,-120)" stroke="rgb(235,235,235)">
          <rect x="1098" width="466" height="22.3765" y="418.6235" stroke="none"/>
        </g>
        <g font-size="15px" stroke-linecap="butt" transform="matrix(1,0,0,1,-62,-120)" text-rendering="geometricPrecision" font-family="sans-serif" shape-rendering="geometricPrecision" stroke-miterlimit="1.45">
          <text x="1507.8008" xml:space="preserve" y="435.7041" stroke="none">Group 1</text>
        </g>
      </g>
      <g text-rendering="geometricPrecision" stroke-miterlimit="1.45" stroke-dasharray="6,2" shape-rendering="geometricPrecision" transform="matrix(1,0,0,1,-62,-120)" stroke-linecap="butt">
        <rect x="1098" y="418.6235" fill="none" width="466" rx="4" ry="4" height="303.3765"/>
      </g>
    </g>
    <g id="y.node.9">
      <g fill="rgb(150,187,124)" text-rendering="geometricPrecision" shape-rendering="geometricPrecision" transform="matrix(1,0,0,1,-62,-120)" stroke="rgb(150,187,124)">
        <rect x="1113" y="456" width="171" rx="4" ry="4" height="30" stroke="none"/>
      </g>
      <g text-rendering="geometricPrecision" stroke-miterlimit="1.45" shape-rendering="geometricPrecision" transform="matrix(1,0,0,1,-62,-120)" stroke-linecap="butt">
        <rect x="1113" y="456" fill="none" width="171" rx="4" ry="4" height="30"/>
      </g>
      <g>
        <g text-rendering="geometricPrecision" stroke-miterlimit="1.45" shape-rendering="geometricPrecision" font-family="sans-serif" transform="matrix(1,0,0,1,-62,-120)" stroke-linecap="butt">
          <text x="1195.1631" xml:space="preserve" y="475.7139" stroke="none">3</text>
        </g>
      </g>
    </g>
    <g id="y.node.10">
      <g fill="rgb(250,213,134)" text-rendering="geometricPrecision" shape-rendering="geometricPrecision" transform="matrix(1,0,0,1,-62,-120)" stroke="rgb(250,213,134)">
        <rect x="1369" y="456" width="180" rx="4" ry="4" height="30" stroke="none"/>
      </g>
      <g text-rendering="geometricPrecision" stroke-miterlimit="1.45" shape-rendering="geometricPrecision" transform="matrix(1,0,0,1,-62,-120)" stroke-linecap="butt">
        <rect x="1369" y="456" fill="none" width="180" rx="4" ry="4" height="30"/>
      </g>
      <g>
        <g text-rendering="geometricPrecision" stroke-miterlimit="1.45" shape-rendering="geometricPrecision" font-family="sans-serif" transform="matrix(1,0,0,1,-62,-120)" stroke-linecap="butt">
          <text x="1455.6631" xml:space="preserve" y="475.7139" stroke="none">4</text>
        </g>
      </g>
    </g>
    <g id="y.node.11">
      <g fill="rgb(250,213,134)" text-rendering="geometricPrecision" shape-rendering="geometricPrecision" transform="matrix(1,0,0,1,-62,-120)" stroke="rgb(250,213,134)">
        <rect x="1113" y="677" width="171" rx="4" ry="4" height="30" stroke="none"/>
      </g>
      <g text-rendering="geometricPrecision" stroke-miterlimit="1.45" shape-rendering="geometricPrecision" transform="matrix(1,0,0,1,-62,-120)" stroke-linecap="butt">
        <rect x="1113" y="677" fill="none" width="171" rx="4" ry="4" height="30"/>
      </g>
      <g>
        <g text-rendering="geometricPrecision" stroke-miterlimit="1.45" shape-rendering="geometricPrecision" font-family="sans-serif" transform="matrix(1,0,0,1,-62,-120)" stroke-linecap="butt">
          <text x="1195.1631" xml:space="preserve" y="696.7139" stroke="none">5</text>
        </g>
      </g>
    </g>
    <g id="y.edge.0">
      <g text-rendering="geometricPrecision" stroke-miterlimit="1.45" shape-rendering="geometricPrecision" transform="matrix(1,0,0,1,-62,-120)" stroke-linecap="butt">
        <path fill="none" d="M918.9844 471.7565 L1105.0281 471.253"/>
        <path d="M1113.0281 471.2313 L1101.0146 466.2638 L1104.0281 471.2557 L1101.0416 476.2638 Z" stroke="none"/>
      </g>
    </g>
    <g id="y.edge.9">
      <g text-rendering="geometricPrecision" stroke-miterlimit="1.45" shape-rendering="geometricPrecision" transform="matrix(1,0,0,1,-62,-120)" stroke-linecap="butt">
        <path fill="none" d="M1284.0083 471 L1360.9835 471"/>
        <path d="M1368.9835 471 L1356.9835 466 L1359.9835 471 L1356.9835 476 Z" stroke="none"/>
      </g>
    </g>
    <g id="y.edge.2">
      <g text-rendering="geometricPrecision" stroke-miterlimit="1.45" shape-rendering="geometricPrecision" transform="matrix(1,0,0,1,-62,-120)" stroke-linecap="butt">
        <path fill="none" d="M918.9883 472 L1053 472 L1053 692 L1104.9974 692"/>
        <path d="M1112.9974 692 L1100.9974 687 L1103.9974 692 L1100.9974 697 Z" stroke="none"/>
      </g>
    </g>
  </g>
</svg>
